<svg width="36" height="35" viewBox="0 0 36 35" fill="none" xmlns="http://www.w3.org/2000/svg">
<path d="M17.7884 1C26.901 1 34.2883 8.38731 34.2883 17.5C34.2883 26.6127 26.901 34 17.7884 34C8.67564 34 1.28833 26.6127 1.28833 17.5C1.28833 8.38731 8.67564 1 17.7884 1Z" stroke="#0FA958" stroke-width="1.9472"/>
<path d="M31.3789 17.5C31.3789 9.99414 25.2942 3.90942 17.7884 3.90942C10.2825 3.90942 4.19775 9.99414 4.19775 17.5C4.19775 25.0059 10.2825 31.0906 17.7884 31.0906C25.2942 31.0906 31.3789 25.0059 31.3789 17.5Z" fill="#0FA958"/>
<path d="M12.5147 19.1554C12.5147 19.4681 12.5699 19.762 12.6804 20.0371C12.791 20.2998 12.9384 20.5311 13.1226 20.7312C13.3191 20.9312 13.5463 21.0876 13.8041 21.2002C14.0743 21.3127 14.3629 21.369 14.67 21.369C14.9647 21.369 15.241 21.3127 15.4989 21.2002C15.7691 21.0876 15.9962 20.9312 16.1804 20.7312C16.377 20.5311 16.5305 20.2998 16.6409 20.0371C16.7638 19.7745 16.8252 19.4931 16.8252 19.1929C16.8252 18.8928 16.7638 18.6115 16.6409 18.3488C16.5305 18.0737 16.377 17.8361 16.1804 17.636C15.9962 17.4359 15.7691 17.2796 15.4989 17.167C15.241 17.0545 14.9647 16.9982 14.67 16.9982C14.3629 16.9982 14.0743 17.0545 13.8041 17.167C13.5463 17.2796 13.3191 17.4359 13.1226 17.636C12.9384 17.8361 12.791 18.0674 12.6804 18.33C12.5699 18.5802 12.5147 18.8553 12.5147 19.1554ZM16.7147 14.372H20.0673V23.9952H16.7147V22.9259C16.0024 23.8389 15.0383 24.2953 13.8226 24.2953C13.1348 24.2953 12.5024 24.1702 11.9252 23.9202C11.348 23.6575 10.8445 23.2948 10.4147 22.8321C9.98488 22.3694 9.64716 21.8254 9.4015 21.2002C9.16818 20.5748 9.05151 19.8933 9.05151 19.1554C9.05151 18.4677 9.16818 17.8173 9.4015 17.2045C9.6349 16.5793 9.96028 16.0353 10.3779 15.5725C10.7954 15.1099 11.2928 14.7472 11.8699 14.4845C12.4471 14.2095 13.0858 14.0719 13.7857 14.0719C14.9647 14.0719 15.941 14.4908 16.7147 15.3287V14.372ZM24.381 14.372V23.9952H21.0468V14.372H24.381ZM20.8257 10.6766C20.8257 10.414 20.8748 10.1701 20.9731 9.94501C21.0714 9.70738 21.2064 9.50106 21.3784 9.32595C21.5503 9.15091 21.7468 9.01331 21.9679 8.91329C22.2012 8.81319 22.4468 8.76318 22.7047 8.76318C22.9626 8.76318 23.202 8.81319 23.4231 8.91329C23.6565 9.01331 23.8591 9.15091 24.031 9.32595C24.2029 9.50106 24.338 9.70738 24.4362 9.94501C24.5345 10.1701 24.5836 10.414 24.5836 10.6766C24.5836 10.9392 24.5345 11.1893 24.4362 11.4269C24.338 11.652 24.2029 11.8521 24.031 12.0272C23.8591 12.2023 23.6565 12.3399 23.4231 12.4399C23.202 12.5399 22.9626 12.5899 22.7047 12.5899C22.4468 12.5899 22.2012 12.5399 21.9679 12.4399C21.7468 12.3399 21.5503 12.2023 21.3784 12.0272C21.2064 11.8521 21.0714 11.652 20.9731 11.4269C20.8748 11.1893 20.8257 10.9392 20.8257 10.6766Z" fill="white"/>
</svg>
